<?xml version="1.0" encoding="iso-8859-1"?>
<!-- Uploaded to: SVG Repo, www.svgrepo.com, Generator: SVG Repo Mixer Tools -->
<svg fill="#ffffff" height="800px" width="800px" version="1.1" id="Layer_1" xmlns="http://www.w3.org/2000/svg" xmlns:xlink="http://www.w3.org/1999/xlink" 
	 viewBox="0 0 512.002 512.002" xml:space="preserve">
<g>
	<g>
		<path d="M208.963,282.35h-15.11c-3.793,12.556-15.627,22.049-30.616,23.63v182.949c0,12.742,10.33,23.072,23.072,23.072
			c12.742,0,23.072-10.33,23.072-23.072C209.381,298.916,208.963,282.35,208.963,282.35z"/>
	</g>
</g>
<g>
	<g>
		<path d="M124.02,282.35h-16.901l0.009,206.58c0,12.742,10.33,23.072,23.072,23.072c12.742,0,23.072-10.33,23.072-23.072V305.811
			C138.73,303.778,127.648,294.357,124.02,282.35z"/>
	</g>
</g>
<g>
	<g>
		<path d="M224.074,44.044c-2.306-7.498-10.255-11.71-17.753-9.399c-3.132,0.964-6.286,1.804-9.45,2.576l-8.909-33.273
			c-0.742-2.772-3.547-4.456-6.342-3.81l-16.554,3.829c-4.622,1.069-9.427,1.069-14.049,0l-16.554-3.829
			c-2.795-0.646-5.6,1.039-6.342,3.81l-8.909,33.273c-3.164-0.772-6.319-1.613-9.45-2.576c-7.503-2.31-15.447,1.902-17.753,9.399
			c-2.309,7.499,1.9,15.447,9.397,17.753c5.565,1.712,11.178,3.162,16.825,4.359c-0.869,22.777,17.349,41.392,39.809,41.392
			c22.442,0,40.679-18.598,39.809-41.392c5.646-1.197,11.26-2.648,16.824-4.359C222.172,59.492,226.381,51.543,224.074,44.044z"/>
	</g>
</g>
<g>
	<g>
		<ellipse cx="158.935" cy="273.828" rx="19.136" ry="15.341"/>
	</g>
</g>
<g>
	<g>
		<path d="M445.987,81.34c-12.35-3.446-24.86-6.801-25.976-7.092c0.946-2.808,0.239-0.665,3.98-12.103
			c1.856-5.746-2.958-11.381-8.866-10.502l-0.195,0.029c-9.475,1.41-2.759,0.341-19.435,2.933
			c-0.62-1.911-4.233-13.032-4.803-14.788l-0.021-0.064c-2.309-7.022-12.087-7.748-15.334-1.012
			c-1.413,2.931-7.653,16.35-9.327,19.983c0-0.001-8.825-10.711-8.826-10.712c-3.976-4.785-11.833-2.218-12.158,4.036
			c-0.276,5.297-0.572,10.59-0.829,15.889c-5.169,1.336-15.579,4.095-24.369,6.548c-5.099,1.42-4.556,6.95-1.032,8.389
			c6.622,2.704,20.219,8.04,30.66,11.914c-1.192,1.42-2.797,3.343-4.371,5.249c-0.227,0.273-0.21,0.674,0.038,0.928
			c0.248,0.254,0.647,0.281,0.927,0.064c2.579-2.01,5.469-4.286,7.331-5.789c0.803-0.654,0.878-1.879-0.437-2.686
			c-4.739-2.91-13.573-8.11-18.806-11.142c11.774-1.763,7.033-1.029,17.223-2.639c2.446-0.389,4.385-2.122,4.872-5.447
			c0.116-0.796,0.219-1.592,0.331-2.388c1.718,2.362,3.433,4.728,5.171,7.075c3.433,4.599,10.416,3.94,12.971-1.085l0.144-0.282
			c2.08-4.089,4.171-8.172,6.228-12.271c0.229,0.707,0.452,1.417,0.684,2.123l0.032,0.102c1.254,3.825,5.143,6.272,9.239,5.598
			c0.015-0.002,13.661-2.248,13.661-2.248l-2.133,7.394c-1.44,4.975,1.609,9.028,5.628,9.886c8.659,1.848,7.388,1.597,19.123,3.991
			c-4.738,3.177-13.459,9.096-19.608,13.383c-2.536,1.766-2.818,4.108-1.769,5.957c3.32,5.847,2.334,4.172,8.102,14.127
			c-5.476,1.789-10.639,3.544-15.199,5.122l-0.273,0.095c-0.619,0.215-0.969,0.881-0.783,1.519c0.826,2.849,1.413,4.879,1.877,6.476
			c0.099,0.341,0.44,0.553,0.79,0.491c0.35-0.063,0.597-0.378,0.572-0.733c-0.097-1.403-0.216-3.083-0.37-5.279
			c10.006-1.38,14.159-2.061,18.865-2.786c1.574-0.253,3.173-1.777,2.13-4.496c-0.965-2.516-4.41-11.175-5.723-14.406
			c11.27-5.866,25.394-13.481,31.973-17.136C452.728,90.851,452.639,83.193,445.987,81.34z"/>
	</g>
</g>
<g>
	<g>
		<path d="M375.188,97.256c-3.347-2.082-7.745-1.057-9.828,2.289c-0.47,0.755-7.681,12.495-16.242,33.91l-3.432-1.332
			c-4.256-1.653-9.046,0.457-10.698,4.714l-10.493,27.023c-6.726-5.316-16.427-5.651-23.559-0.215l-45.541,34.718l0.079-32.696
			c0-0.047,0-0.095,0-0.143c-0.126-24.964-20.537-45.272-45.5-45.272c-5.288,0-53.786,0-103.866,0
			c-24.964,0-45.262,20.309-45.387,45.272c0,0.048,0,0.095,0,0.143v141.253c0.027,10.608,8.859,19.182,19.453,19.181
			c0.016,0,0.031,0,0.047,0c10.619-0.026,18.974-8.654,18.948-19.273V165.663c-0.011-0.188,0-0.37,0-0.548
			c0-2.23,1.683-4.038,3.913-4.038s4.038,1.808,4.038,4.037v100.19h16.901c4.329-14.334,18.711-23.864,34.915-23.864
			c16.224,0,30.591,9.546,34.916,23.864h15.11V164.557c0-2.243,1.819-4.062,4.061-4.062s3.961,1.819,3.961,4.062
			c0,0.349,0.045,0.719,0,1.11v71.554c-0.039,16.002,18.177,24.918,30.747,15.337l60.723-46.291c-0.21,3.49,1.824,6.867,5.259,8.2
			l22.719,8.822c4.256,1.652,9.046-0.458,10.698-4.714l25.989-66.933c1.652-4.256-0.459-9.046-4.714-10.698l-5.954-2.312
			c8.139-20.297,14.922-31.382,15.029-31.555C379.558,103.732,378.532,99.337,375.188,97.256z"/>
	</g>
</g>
</svg>