<?xml version="1.0" encoding="iso-8859-1"?>
<!-- Uploaded to: SVG Repo, www.svgrepo.com, Drone: SVG Repo Mixer Tools -->
<svg version="1.0" xmlns="http://www.w3.org/2000/svg"
 width="800px" height="800px" viewBox="0 0 1280.000000 640.000000"
 preserveAspectRatio="xMidYMid meet">
<g transform="translate(0.000000,640.000000) scale(0.100000,-0.100000)"
fill="#ffffff" stroke="none">
<path d="M12253 5850 c-29 -4 -182 -60 -340 -123 l-288 -116 -135 -11 c-74 -6
-144 -13 -156 -15 -13 -3 -49 -48 -98 -121 l-77 -116 -397 -195 c-513 -252
-1117 -543 -1535 -739 -374 -176 -991 -462 -1022 -474 -11 -4 -79 0 -151 11
-367 51 -396 53 -411 33 -29 -40 -17 -71 62 -154 41 -43 75 -84 75 -90 0 -13
-1 -14 -485 -205 l-400 -158 -640 27 c-352 15 -716 32 -810 36 -93 5 -197 9
-231 10 -103 0 -102 -2 -65 200 18 95 36 181 42 192 11 21 14 21 214 8 81 -5
144 -5 149 0 6 6 4 11 -5 15 -16 5 -506 36 -559 34 l-35 -1 27 -11 c15 -6 30
-17 32 -24 6 -14 -164 -357 -188 -382 -17 -17 -95 -6 -103 15 -3 7 12 37 33
65 l38 52 -41 36 c-60 54 -158 101 -207 100 -48 0 -114 -25 -150 -56 -37 -33
-34 -69 11 -115 20 -21 34 -41 30 -45 -9 -8 -132 26 -662 184 -636 189 -707
203 -926 184 -151 -14 -224 -33 -344 -92 -163 -79 -269 -162 -488 -382 -116
-116 -212 -204 -232 -213 -25 -10 -85 -14 -227 -15 l-193 -1 90 -13 c50 -7
132 -18 184 -24 123 -14 132 -23 85 -83 -31 -40 -34 -49 -24 -68 20 -38 279
-195 578 -350 57 -30 114 -67 127 -82 13 -16 28 -53 35 -85 17 -91 37 -133 98
-212 56 -74 58 -75 122 -88 68 -14 98 -12 193 14 56 15 59 18 116 103 52 79
67 115 86 203 5 26 7 27 74 27 67 0 428 -22 659 -39 62 -5 119 -14 127 -21 10
-8 15 -31 15 -66 0 -52 -1 -54 -45 -86 -24 -18 -44 -41 -45 -51 0 -10 15 -48
34 -86 30 -58 40 -69 66 -75 18 -3 30 -11 28 -18 -4 -12 -187 -88 -653 -270
-537 -209 -910 -343 -1610 -578 -1211 -407 -1508 -509 -1648 -569 l-48 -21 18
-25 c38 -53 198 -85 453 -92 174 -5 176 -5 435 42 420 76 377 71 437 46 56
-24 205 -48 231 -38 8 3 36 44 62 91 25 47 51 88 56 92 41 25 788 227 844 227
28 1 105 -5 173 -13 142 -16 158 -10 117 38 -37 44 -30 64 30 80 28 7 171 49
318 93 l268 80 63 -19 62 -19 30 23 c39 32 144 69 435 154 205 61 246 70 267
60 82 -37 162 -44 552 -46 329 -1 390 -4 422 -18 33 -14 60 -15 222 -6 101 5
192 13 202 17 10 4 27 17 39 29 11 12 47 32 80 44 33 12 74 30 90 39 17 10 48
21 69 24 22 4 43 10 48 15 5 5 10 34 11 65 2 48 -2 59 -25 84 -16 16 -28 36
-28 45 0 8 -6 21 -14 27 -15 13 -151 31 -233 31 -40 0 -53 4 -53 15 0 12 16
15 87 15 113 0 364 -20 383 -30 8 -5 19 -23 25 -41 14 -42 23 -43 281 -58 104
-6 230 -14 280 -18 l91 -6 40 36 c35 32 46 36 102 39 l63 3 -36 45 c-44 55
-46 95 -14 212 17 63 19 81 9 88 -15 9 -69 16 -279 35 -84 8 -157 17 -162 20
-15 9 -12 52 6 69 8 9 39 23 68 31 47 14 91 14 377 4 178 -7 720 -13 1204 -13
l880 -1 280 -555 280 -555 170 -3 c154 -3 403 10 464 25 l24 6 -7 131 c-3 72
-11 185 -16 251 -5 66 -14 181 -19 255 -6 74 -16 204 -22 288 -9 111 -9 156
-1 164 13 13 282 69 294 62 15 -9 8 -24 -76 -172 -85 -147 -85 -147 -76 -195
18 -94 181 -451 203 -445 26 8 282 528 361 733 25 66 56 140 68 165 23 44 24
45 121 73 l99 28 59 -38 c33 -21 131 -87 219 -147 184 -126 166 -127 220 2 58
136 72 211 74 382 l1 154 -170 51 c-301 91 -532 178 -539 203 -6 20 -22 205
-36 432 -6 91 -12 187 -15 214 -4 45 1 57 79 200 401 728 572 1036 592 1067
l23 37 84 -5 84 -6 44 83 c52 97 22 73 464 374 326 222 355 244 355 256 0 13
-92 48 -154 59 -66 12 -292 13 -373 1z m-2163 -1830 c0 -14 -277 -358 -297
-369 -16 -8 -244 -5 -290 5 -13 2 -23 9 -23 14 0 5 123 82 273 171 149 89 281
168 292 175 24 16 45 18 45 4z m774 -607 c13 -44 33 -153 28 -158 -11 -11 -32
-4 -61 21 -37 31 -38 40 -10 105 23 52 34 60 43 32z m-4604 -93 c0 -5 -4 -10
-10 -10 -5 0 -10 5 -10 10 0 6 5 10 10 10 6 0 10 -4 10 -10z m680 -20 c0 -5
-4 -10 -10 -10 -5 0 -10 5 -10 10 0 6 5 10 10 10 6 0 10 -4 10 -10z m3919
-359 c16 -10 6 -31 -15 -31 -24 0 -55 20 -49 31 8 11 45 12 64 0z m651 -114
c102 -51 94 -61 -41 -54 -113 7 -113 7 -147 42 -38 39 -37 44 11 61 37 13 73
3 177 -49z m-7090 -367 c264 -17 291 -21 288 -37 -3 -17 -397 -182 -434 -183
-35 0 -120 98 -138 160 -9 29 -13 56 -10 61 7 12 112 11 294 -1z"/>
</g>
</svg>
